<?xml version="1.0" standalone="no"?>
<!DOCTYPE svg PUBLIC "-//W3C//DTD SVG 20010904//EN"
 "http://www.w3.org/TR/2001/REC-SVG-20010904/DTD/svg10.dtd">
<svg version="1.0"
        xmlns="http://www.w3.org/2000/svg" width="200.000000pt" height="200.000000pt" viewBox="0 0 200.000000 200.000000" preserveAspectRatio="xMidYMid meet">

        <g transform="translate(0.000000,200.000000) scale(0.100000,-0.100000)" fill="#fff" stroke="none">
                <path d="M425 1900 c-3 -5 1 -33 10 -62 18 -61 18 -58 4 -58 -5 0 -21 25 -35
56 -33 74 -65 63 -40 -13 11 -34 -11 -28 -29 7 -17 32 -35 40 -35 15 0 -8 7
-42 17 -75 9 -33 14 -62 11 -65 -2 -3 -42 11 -87 31 -64 28 -86 33 -95 24 -8
-9 -4 -17 19 -34 65 -47 116 -103 130 -141 7 -22 10 -41 5 -43 -5 -2 -27 6
-50 18 -47 24 -83 23 -88 -1 -2 -11 8 -20 29 -28 71 -25 137 -99 124 -140 -5
-16 -15 -17 -104 -13 -112 5 -171 -2 -171 -22 0 -14 18 -17 173 -32 74 -7 141
-43 181 -96 19 -27 19 -28 1 -48 -10 -11 -48 -35 -84 -53 -56 -27 -77 -32
-140 -32 -82 0 -99 -13 -56 -41 44 -29 158 -15 291 35 83 31 123 41 155 39 40
-3 44 -6 47 -31 2 -16 -4 -39 -13 -53 -21 -32 -91 -78 -109 -71 -8 3 -20 0
-26 -8 -14 -17 13 -45 44 -45 30 0 104 48 157 103 25 25 61 50 83 57 46 15
180 19 220 6 l29 -9 -6 56 c-6 61 -15 86 -26 69 -3 -5 -40 -16 -82 -23 -70
-11 -81 -11 -125 6 -31 12 -70 40 -106 75 -71 71 -88 122 -88 264 0 117 -19
214 -55 294 -36 79 -64 108 -80 82z m61 -75 c41 -94 56 -173 58 -307 2 -120 4
-130 35 -192 35 -72 79 -112 165 -152 51 -23 59 -24 118 -14 35 6 73 14 86 17
20 5 22 2 22 -33 l0 -39 -77 3 c-125 6 -175 -10 -248 -78 -88 -81 -151 -111
-171 -78 -5 8 -2 9 10 5 22 -8 46 4 97 50 50 45 63 98 29 125 -33 27 -79 22
-193 -21 -133 -51 -210 -67 -261 -55 -56 13 -59 34 -4 23 50 -9 100 2 173 38
111 56 120 89 44 157 -57 51 -86 61 -209 73 l-85 8 125 5 125 5 3 37 c3 30 -3
44 -32 76 -19 21 -53 47 -76 57 -42 19 -56 41 -17 30 12 -4 44 -21 71 -37 l49
-29 -5 50 c-6 65 -43 120 -110 166 -67 44 -56 44 44 -1 65 -29 82 -34 89 -23
5 8 7 21 5 29 -3 8 -8 31 -11 50 -6 29 -5 33 6 23 7 -7 22 -13 32 -13 19 0 20
7 1 67 -3 10 7 -4 21 -30 44 -82 86 -76 60 9 -18 59 -18 67 -4 58 6 -3 22 -30
35 -59z"/>
                <path d="M1537 1892 c-55 -61 -97 -218 -97 -368 0 -142 -17 -193 -88 -264 -36
-35 -75 -63 -106 -75 -44 -17 -55 -17 -125 -6 -42 7 -81 17 -87 22 -12 10 -24
-38 -24 -95 0 -26 2 -28 28 -20 33 11 158 11 168 1 4 -4 -2 -53 -14 -110 -27
-124 -39 -239 -23 -217 6 8 11 27 11 42 0 29 3 32 41 41 24 6 27 3 42 -53 10
-33 22 -60 27 -60 14 0 13 9 -6 64 -9 26 -14 56 -11 66 3 11 1 20 -3 20 -9 0
-26 76 -34 157 l-5 52 32 -11 c18 -6 52 -31 76 -55 53 -55 127 -103 157 -103
31 0 58 28 44 45 -6 8 -18 11 -26 8 -18 -7 -88 39 -109 71 -9 14 -15 37 -13
53 3 25 7 28 47 31 32 2 72 -8 155 -39 133 -50 247 -64 291 -35 43 28 26 41
-56 41 -63 0 -84 5 -140 32 -36 18 -74 42 -84 53 -18 20 -18 21 1 48 40 53
107 89 181 96 155 15 173 18 173 32 0 20 -59 27 -171 22 -89 -4 -99 -3 -104
13 -13 41 53 115 124 140 21 8 31 17 29 28 -5 24 -41 25 -88 1 -23 -12 -45
-20 -50 -18 -5 2 -2 20 5 42 16 44 71 106 121 132 34 18 43 37 24 49 -5 3 -46
-10 -91 -30 -45 -20 -84 -33 -87 -30 -3 3 2 32 11 65 10 33 17 67 17 75 0 25
-18 17 -35 -15 -18 -35 -40 -41 -29 -7 25 76 -7 87 -40 13 -14 -31 -30 -56
-35 -56 -14 0 -14 -3 4 58 21 68 7 93 -28 54z m9 -63 c-23 -88 14 -95 59 -12
14 26 24 40 21 30 -19 -60 -18 -67 1 -67 10 0 25 6 32 13 11 10 12 6 6 -23 -3
-19 -8 -42 -11 -50 -2 -8 0 -21 5 -29 7 -11 24 -6 89 23 100 45 111 45 44 1
-29 -20 -64 -53 -78 -75 -25 -38 -45 -130 -29 -130 5 0 27 11 49 24 23 13 51
27 64 30 38 12 24 -10 -18 -29 -23 -10 -57 -36 -76 -57 -29 -32 -35 -46 -32
-76 l3 -37 125 -5 125 -5 -85 -8 c-123 -12 -152 -22 -209 -73 -76 -68 -67
-101 44 -157 73 -36 123 -47 173 -38 55 11 52 -10 -4 -23 -51 -12 -128 4 -261
55 -114 43 -160 48 -193 21 -34 -27 -21 -80 29 -125 51 -46 75 -58 97 -50 12
4 15 3 10 -5 -20 -33 -83 -3 -171 78 -73 68 -123 84 -248 78 l-77 -3 0 39 c0
35 2 38 23 33 12 -3 50 -11 85 -17 59 -10 67 -9 118 14 86 40 130 80 165 152
30 61 33 73 35 187 2 128 18 219 54 302 39 91 58 98 36 14z m-314 -914 c3 -46
1 -50 -21 -53 -22 -4 -23 -1 -17 29 3 18 9 58 13 88 7 55 7 55 14 21 4 -19 9
-57 11 -85z"/>
                <path d="M846 1063 c-3 -3 -6 -27 -7 -52 0 -52 -19 -113 -35 -118 -7 -2 -29
23 -49 57 -20 33 -41 58 -46 55 -23 -15 6 -195 31 -195 12 0 12 3 1 32 -4 13
-11 43 -15 67 l-7 44 39 -43 c44 -50 69 -50 79 0 8 43 15 31 34 -63 20 -96 36
-140 48 -133 4 3 -3 43 -16 88 -28 96 -45 204 -37 235 6 21 -7 38 -20 26z"/>
                <path d="M1099 706 c-3 -3 -59 -19 -124 -36 -65 -17 -121 -33 -124 -36 -2 -2
0 -9 5 -14 7 -7 25 -5 53 5 64 22 85 20 77 -7 -3 -13 -9 -65 -13 -115 -5 -81
-4 -93 11 -99 23 -9 30 0 15 23 -9 15 -9 42 1 122 14 114 14 115 107 128 25 3
42 10 40 17 -4 12 -39 20 -48 12z"/>
        </g>
</svg>
